<svg xmlns="http://www.w3.org/2000/svg" viewBox="0 0 512 512" role="img" aria-label="Trovan app icon">
<defs>
  <linearGradient id="copper" x1="0" x2="1" y1="0" y2="1">
    <stop offset="0" stop-color="#E3A15F"/>
    <stop offset="0.47" stop-color="#B87333"/>
    <stop offset="1" stop-color="#7B3F1D"/>
  </linearGradient>
  <filter id="softShadow" x="-30%" y="-30%" width="160%" height="160%">
    <feDropShadow dx="0" dy="8" stdDeviation="10" flood-color="#000000" flood-opacity="0.28"/>
  </filter>
</defs>
<rect x="32" y="32" width="448" height="448" rx="96" fill="#0B1324"/>
<rect x="32" y="32" width="448" height="448" rx="96" fill="none" stroke="rgba(255,255,255,.15)" stroke-width="2"/>
<g transform="translate(106 96) scale(1.0)">
  <path fill="url(#copper)" d="M150 24c54 0 100 33 119 80H31C50 57 96 24 150 24Z"/>
  <path fill="url(#copper)" d="M33 118h72v32H71v82c-24-23-38-55-38-91v-23Z"/>
  <path fill="url(#copper)" d="M195 118h72v23c0 36-14 68-38 91v-82h-34v-32Z"/>
  <path fill="url(#copper)" d="M115 118h70v31h-20v112c-5 1-10 1-15 1s-10 0-15-1V149h-20v-31Z"/>
  <path fill="url(#copper)" d="M185 98h49l23-23 12 12-22 22 22 22-12 12-23-23h-49V98Z"/>
  <path fill="url(#copper)" d="M83 235c33-13 59-42 68-78 15 49-15 94-68 78Z"/>
</g>
</svg>